<svg width="640" height="800" viewBox="0 0 640 800" fill="none" xmlns="http://www.w3.org/2000/svg">
<g id="Jj">
<rect width="640" height="800" rx="24" fill="#F5F5F5"/>
<g id="Frame">
<g id="shapes/circles/variant 1">
<circle id="Ellipse" cx="400" cy="360" r="40" fill="#333333"/>
</g>
</g>
<g id="Frame_2">
<g id="shapes/variant 4/2">
<path id="Intersect" fill-rule="evenodd" clip-rule="evenodd" d="M440 480C440 457.909 422.091 440 400 440C377.909 440 360 457.909 360 480H440Z" fill="#333333"/>
</g>
</g>
<g id="Frame_3">
<g id="shapes/variant 4/2_2">
<path id="Intersect_2" fill-rule="evenodd" clip-rule="evenodd" d="M280 560C280 537.909 262.091 520 240 520C217.909 520 200 537.909 200 560H280Z" fill="#333333"/>
</g>
<g id="shapes/mother shape">
<rect id="Rectangle" x="360" y="480" width="80" height="80" fill="#333333"/>
</g>
</g>
<g id="Frame_4">
<g id="shapes/variant 5/2">
<path id="Rectangle_2" d="M200 560H280V640C235.817 640 200 604.183 200 560Z" fill="#333333"/>
</g>
<g id="shapes/variant 1/2">
<path id="Subtract" fill-rule="evenodd" clip-rule="evenodd" d="M320 640C342.091 640 360 622.091 360 600V640H320ZM280 600C280 622.091 297.909 640 320 640H280V600Z" fill="#333333"/>
</g>
<g id="shapes/variant 5/2_2">
<path id="Rectangle_3" d="M360 560H440C440 604.183 404.183 640 360 640V560Z" fill="#333333"/>
</g>
</g>
</g>
</svg>
